<mxfile host="app.diagrams.net" modified="2023-05-21T10:12:36.748Z" agent="Mozilla/5.0 (X11; Ubuntu; Linux x86_64; rv:109.0) Gecko/20100101 Firefox/113.0" etag="w0JJT-yzIlxIMaCwatVY" version="21.3.2" type="github">
  <diagram name="Page-1" id="o2rwfdsVmdPVUAqilAZ4">
    <mxGraphModel dx="2002" dy="1315" grid="1" gridSize="10" guides="1" tooltips="1" connect="1" arrows="1" fold="1" page="1" pageScale="1" pageWidth="850" pageHeight="1100" math="0" shadow="0">
      <root>
        <mxCell id="0" />
        <mxCell id="1" parent="0" />
        <mxCell id="_1X5CPcT6_yZaV47p-Ft-8" value="" style="rounded=0;whiteSpace=wrap;html=1;strokeColor=none;fillStyle=auto;fillColor=#babdb6;gradientColor=none;" vertex="1" parent="1">
          <mxGeometry x="280" y="720" width="280" height="40" as="geometry" />
        </mxCell>
        <mxCell id="_1X5CPcT6_yZaV47p-Ft-1" value="&lt;b style=&quot;font-size: 20px;&quot;&gt;W&lt;/b&gt;" style="ellipse;whiteSpace=wrap;html=1;aspect=fixed;fontSize=20;strokeWidth=3;" vertex="1" parent="1">
          <mxGeometry x="390" y="670" width="50" height="50" as="geometry" />
        </mxCell>
        <mxCell id="_1X5CPcT6_yZaV47p-Ft-2" value="" style="endArrow=none;html=1;rounded=0;strokeWidth=3;exitX=0.7;exitY=0.08;exitDx=0;exitDy=0;exitPerimeter=0;" edge="1" parent="1" source="_1X5CPcT6_yZaV47p-Ft-1">
          <mxGeometry width="50" height="50" relative="1" as="geometry">
            <mxPoint x="420" y="670" as="sourcePoint" />
            <mxPoint x="490" y="490" as="targetPoint" />
          </mxGeometry>
        </mxCell>
        <mxCell id="_1X5CPcT6_yZaV47p-Ft-3" value="" style="endArrow=none;html=1;rounded=0;" edge="1" parent="1">
          <mxGeometry width="50" height="50" relative="1" as="geometry">
            <mxPoint x="280" y="720" as="sourcePoint" />
            <mxPoint x="560" y="720" as="targetPoint" />
          </mxGeometry>
        </mxCell>
        <mxCell id="_1X5CPcT6_yZaV47p-Ft-6" value="" style="ellipse;whiteSpace=wrap;html=1;aspect=fixed;fontSize=17;strokeWidth=3;fillColor=#000000;" vertex="1" parent="1">
          <mxGeometry x="484" y="468" width="21" height="21" as="geometry" />
        </mxCell>
        <mxCell id="_1X5CPcT6_yZaV47p-Ft-7" value="C" style="rounded=0;whiteSpace=wrap;html=1;fillColor=none;strokeColor=none;fontSize=25;fontStyle=1;fontFamily=Helvetica;" vertex="1" parent="1">
          <mxGeometry x="490" y="429" width="60" height="60" as="geometry" />
        </mxCell>
      </root>
    </mxGraphModel>
  </diagram>
</mxfile>
